<svg width="240" height="240" viewBox="0 0 240 240" fill="none" xmlns="http://www.w3.org/2000/svg">
<g clip-path="url(#clip0_4_75)">
<path d="M59.4806 34.9891C76.0441 24.7197 78.2392 -6.46561 111.648 1.19603C149.212 9.81672 116.93 50.0215 147.123 73.0387C170.811 91.0883 197.459 78.0064 209.737 96.0236C220.49 111.832 202.201 125.118 211.827 150.625C220.478 173.567 239.93 175.086 240 191.81C240.059 207.424 230.996 219.127 213.388 221.983C194.371 225.065 179.604 214.871 157.558 215.754C136.687 216.595 132.907 230.84 112.693 237.187C76.3023 248.577 20.4138 223.534 13.5701 193.728C7.84156 168.825 40.1116 156.875 34.43 127.64C29.1123 100.215 -0.246482 99.8598 3.27706e-05 75.9159C0.434369 34.4827 43.0345 45.1831 59.4806 34.9891Z" fill="white"/>
</g>
<defs>
<clipPath id="clip0_4_75">
<rect width="240" height="240" fill="white"/>
</clipPath>
</defs>
</svg>
