<svg width="38" height="38" viewBox="0 0 38 38" fill="none" xmlns="http://www.w3.org/2000/svg">
<path d="M18.6 23.6364C21.1606 23.6364 23.2363 21.5606 23.2363 19C23.2363 16.4394 21.1606 14.3636 18.6 14.3636C16.0394 14.3636 13.9636 16.4394 13.9636 19C13.9636 21.5606 16.0394 23.6364 18.6 23.6364Z" stroke="white" stroke-width="3" stroke-linecap="round" stroke-linejoin="round"/>
<path d="M30.0364 23.6364C29.8306 24.1025 29.7693 24.6196 29.8602 25.1209C29.9511 25.6222 30.1901 26.0849 30.5464 26.4491L30.6391 26.5418C30.9265 26.8289 31.1545 27.1698 31.31 27.545C31.4656 27.9202 31.5456 28.3224 31.5456 28.7286C31.5456 29.1348 31.4656 29.537 31.31 29.9123C31.1545 30.2875 30.9265 30.6284 30.6391 30.9155C30.352 31.2028 30.0111 31.4308 29.6359 31.5864C29.2607 31.7419 28.8585 31.822 28.4523 31.822C28.0461 31.822 27.6439 31.7419 27.2686 31.5864C26.8934 31.4308 26.5525 31.2028 26.2655 30.9155L26.1727 30.8227C25.8085 30.4664 25.3459 30.2274 24.8446 30.1365C24.3432 30.0456 23.8261 30.107 23.36 30.3127C22.9029 30.5086 22.5131 30.8339 22.2385 31.2486C21.9639 31.6632 21.8165 32.1491 21.8146 32.6464V32.9091C21.8146 33.7289 21.4889 34.515 20.9092 35.0947C20.3296 35.6744 19.5434 36 18.7236 36C17.9039 36 17.1177 35.6744 16.538 35.0947C15.9584 34.515 15.6327 33.7289 15.6327 32.9091V32.77C15.6208 32.2585 15.4552 31.7624 15.1575 31.3462C14.8599 30.93 14.4439 30.613 13.9636 30.4364C13.4975 30.2306 12.9804 30.1693 12.4791 30.2602C11.9778 30.3511 11.5151 30.5901 11.1509 30.9464L11.0582 31.0391C10.7711 31.3265 10.4302 31.5545 10.055 31.71C9.67977 31.8655 9.27756 31.9456 8.87137 31.9456C8.46518 31.9456 8.06297 31.8655 7.68774 31.71C7.31251 31.5545 6.97161 31.3265 6.68455 31.0391C6.39717 30.752 6.16919 30.4111 6.01364 30.0359C5.85809 29.6607 5.77803 29.2585 5.77803 28.8523C5.77803 28.4461 5.85809 28.0439 6.01364 27.6686C6.16919 27.2934 6.39717 26.9525 6.68455 26.6655L6.77728 26.5727C7.13356 26.2085 7.37257 25.7459 7.46347 25.2445C7.55437 24.7432 7.493 24.2261 7.28728 23.76C7.09137 23.3029 6.76608 22.9131 6.35145 22.6385C5.93682 22.3639 5.45095 22.2165 4.95364 22.2145H4.69092C3.87116 22.2145 3.08497 21.8889 2.50531 21.3092C1.92565 20.7296 1.60001 19.9434 1.60001 19.1236C1.60001 18.3039 1.92565 17.5177 2.50531 16.938C3.08497 16.3584 3.87116 16.0327 4.69092 16.0327H4.83001C5.34154 16.0208 5.83765 15.8552 6.25383 15.5575C6.67001 15.2598 6.98702 14.8439 7.16364 14.3636C7.36937 13.8975 7.43073 13.3804 7.33983 12.8791C7.24893 12.3778 7.00993 11.9151 6.65364 11.5509L6.56092 11.4582C6.27353 11.1711 6.04555 10.8302 5.89 10.455C5.73446 10.0798 5.65439 9.67756 5.65439 9.27136C5.65439 8.86517 5.73446 8.46296 5.89 8.08773C6.04555 7.7125 6.27353 7.37161 6.56092 7.08455C6.84798 6.79716 7.18887 6.56918 7.5641 6.41363C7.93933 6.25809 8.34154 6.17802 8.74773 6.17802C9.15393 6.17802 9.55614 6.25809 9.93137 6.41363C10.3066 6.56918 10.6475 6.79716 10.9346 7.08455L11.0273 7.17727C11.3915 7.53356 11.8541 7.77256 12.3555 7.86346C12.8568 7.95436 13.3739 7.893 13.84 7.68727H13.9636C14.4207 7.49137 14.8106 7.16608 15.0852 6.75145C15.3598 6.33682 15.5071 5.85094 15.5091 5.35364V5.09091C15.5091 4.27115 15.8347 3.48496 16.4144 2.90531C16.9941 2.32565 17.7802 2 18.6 2C19.4198 2 20.2059 2.32565 20.7856 2.90531C21.3653 3.48496 21.6909 4.27115 21.6909 5.09091V5.23C21.6929 5.72731 21.8403 6.21318 22.1148 6.62781C22.3894 7.04244 22.7793 7.36773 23.2364 7.56364C23.7025 7.76936 24.2196 7.83073 24.7209 7.73983C25.2223 7.64892 25.6849 7.40992 26.0491 7.05364L26.1418 6.96091C26.4289 6.67353 26.7698 6.44554 27.145 6.29C27.5202 6.13445 27.9224 6.05439 28.3286 6.05439C28.7348 6.05439 29.137 6.13445 29.5123 6.29C29.8875 6.44554 30.2284 6.67353 30.5155 6.96091C30.8028 7.24797 31.0308 7.58886 31.1864 7.96409C31.3419 8.33932 31.422 8.74153 31.422 9.14773C31.422 9.55392 31.3419 9.95613 31.1864 10.3314C31.0308 10.7066 30.8028 11.0475 30.5155 11.3345L30.4227 11.4273C30.0664 11.7915 29.8274 12.2541 29.7365 12.7555C29.6456 13.2568 29.707 13.7739 29.9127 14.24V14.3636C30.1086 14.8207 30.4339 15.2106 30.8486 15.4852C31.2632 15.7598 31.7491 15.9071 32.2464 15.9091H32.5091C33.3289 15.9091 34.115 16.2347 34.6947 16.8144C35.2744 17.3941 35.6 18.1802 35.6 19C35.6 19.8198 35.2744 20.6059 34.6947 21.1856C34.115 21.7653 33.3289 22.0909 32.5091 22.0909H32.37C31.8727 22.0929 31.3868 22.2402 30.9722 22.5148C30.5576 22.7894 30.2323 23.1793 30.0364 23.6364V23.6364Z" stroke="white" stroke-width="3" stroke-linecap="round" stroke-linejoin="round"/>
</svg>
