<svg width="38" height="38" viewBox="0 0 38 38" fill="none" xmlns="http://www.w3.org/2000/svg">
<path d="M12.9333 30.3333V5.77778L35.6 2V26.5556" stroke="white" stroke-width="3" stroke-linecap="round" stroke-linejoin="round"/>
<path d="M7.26667 36C10.3963 36 12.9333 33.4629 12.9333 30.3333C12.9333 27.2037 10.3963 24.6667 7.26667 24.6667C4.13706 24.6667 1.60001 27.2037 1.60001 30.3333C1.60001 33.4629 4.13706 36 7.26667 36Z" stroke="white" stroke-width="3" stroke-linecap="round" stroke-linejoin="round"/>
<path d="M29.9334 32.2222C33.063 32.2222 35.6 29.6852 35.6 26.5556C35.6 23.4259 33.063 20.8889 29.9334 20.8889C26.8037 20.8889 24.2667 23.4259 24.2667 26.5556C24.2667 29.6852 26.8037 32.2222 29.9334 32.2222Z" stroke="white" stroke-width="3" stroke-linecap="round" stroke-linejoin="round"/>
</svg>
